<?xml version="1.0" encoding="UTF-8" standalone="no"?>
<svg width="56px" height="18px" viewBox="0 0 56 18" version="1.1" xmlns="http://www.w3.org/2000/svg" xmlns:xlink="http://www.w3.org/1999/xlink" xmlns:sketch="http://www.bohemiancoding.com/sketch/ns">
    <!-- Generator: Sketch 3.3.3 (12072) - http://www.bohemiancoding.com/sketch -->
    <title>Oval-1 + by + 74enko</title>
    <desc>Created with Sketch.</desc>
    <defs></defs>
    <g id="Page-1" stroke="none" stroke-width="1" fill="none" fill-rule="evenodd" sketch:type="MSPage">
        <g id="Oval-1-+-by-+-74enko" sketch:type="MSLayerGroup">
            <ellipse id="Oval-1" fill="#DF3770" sketch:type="MSShapeGroup" cx="53.3076923" cy="5.72727273" rx="2.69230769" ry="2.72727273"></ellipse>
            <path d="M51.8755106,6.4747308 L52.143045,6.4747308 L52.143045,6.37162958 C52.143045,6.30682309 52.137229,6.2596911 52.137229,6.2596911 L52.143045,6.2596911 C52.143045,6.2596911 52.2768123,6.51007977 52.6054143,6.51007977 C52.9921762,6.51007977 53.2771586,6.20372187 53.2771586,5.72945626 C53.2771586,5.26697365 53.024164,4.94883275 52.6286783,4.94883275 C52.2855362,4.94883275 52.157585,5.19332992 52.157585,5.19332992 L52.1517691,5.19332992 C52.1517691,5.19332992 52.157585,5.14030645 52.157585,5.06960847 L52.157585,4.58355987 C52.157585,4.45100116 52.0994253,4.39503191 51.9685662,4.39503191 L51.6923077,4.39503191 L51.6923077,4.6395291 L51.8115349,4.6395291 C51.8522467,4.6395291 51.8755106,4.66014933 51.8755106,4.70433556 L51.8755106,6.4747308 L51.8755106,6.4747308 Z M52.1488612,5.73534777 C52.1488612,5.35534612 52.3524198,5.19922143 52.5734265,5.19922143 C52.8176972,5.19922143 52.9892682,5.40836962 52.9892682,5.73240202 C52.9892682,6.07116316 52.7973412,6.26558261 52.5647026,6.26558261 C52.2855362,6.26558261 52.1488612,6.00046519 52.1488612,5.73534777 L52.1488612,5.73534777 L52.1488612,5.73534777 Z M53.695908,7.09333811 C53.9023749,7.09333811 54.0797619,6.97256239 54.1728172,6.74279397 L54.7515058,5.2875939 C54.7718618,5.24046191 54.7980338,5.22867892 54.8445614,5.22867892 L54.8823652,5.22867892 L54.8823652,4.98418175 L54.7137021,4.98418175 C54.5944748,4.98418175 54.5421313,5.01658497 54.5014193,5.13441494 L54.1931732,5.97395345 C54.1670013,6.05054291 54.1437376,6.15364415 54.1437376,6.15364415 L54.1379214,6.15364415 C54.1379214,6.15364415 54.1146577,6.05054291 54.0855778,5.97395345 L53.7540678,5.13441494 C53.7075401,5.01658497 53.6610122,4.98418175 53.541785,4.98418175 L53.3760298,4.98418175 L53.3760298,5.22867892 L53.4138336,5.22867892 C53.4603615,5.22867892 53.4836252,5.24046191 53.5039812,5.2875939 L54.0070623,6.46883929 L53.9401787,6.63085549 C53.8849268,6.7634142 53.7947795,6.84589519 53.6813682,6.84589519 C53.5592327,6.84589519 53.4690854,6.74868545 53.4661774,6.73984822 L53.3498582,6.94605065 C53.3498582,6.94605065 53.4778093,7.09333811 53.695908,7.09333811 L53.695908,7.09333811 L53.695908,7.09333811 Z" id="by" fill="#FFFFFF" sketch:type="MSShapeGroup"></path>
            <path d="M42.5717643,15.4789401 C42.3676424,15.8020556 42.1291473,16.1438294 41.8564453,16.5042614 C41.6513672,16.7847124 41.3232422,17.158647 40.8823243,17.6364524 C40.6054686,17.8753551 40.2773436,18 39.9184571,18 L39.805664,18 C39.3647461,18 38.8828125,17.8441939 38.3393554,17.5325817 C38.1342775,17.3871626 37.9291993,17.1898082 37.7548828,16.9509055 C37.4882814,16.587358 37.2934571,16.1407138 37.1396485,15.610973 C37.0063475,15.1227805 36.9448243,14.8319425 36.9448243,14.7280717 L36.9345703,14.7280717 C36.6782225,15.4240057 36.3603515,16.3900036 35.9707032,17.6052912 C35.7963868,17.719549 35.6118164,17.7714844 35.4169922,17.7714844 L35.4067382,17.7714844 C35.0375975,17.7714844 34.6684571,17.57413 34.2993164,17.1690341 L34.2993164,17.158647 C34.4667031,16.526987 34.6377196,15.9050203 34.8120697,15.292747 C34.6290961,15.6501915 34.4414805,15.9817172 34.2480468,16.2861328 C33.5097657,17.439098 32.7919922,18 32.1049804,18 L31.9921875,18 C31.592285,18 31.1206054,17.8234198 30.5771485,17.4598721 C30.1772461,17.1274858 29.95166,16.8574219 29.8798828,16.6600675 C29.7363282,16.2549716 29.6440429,15.8394886 29.6440429,15.3928445 C29.6440429,14.5722656 29.8798828,13.5335582 30.3515625,12.2559482 C29.3774414,13.3050426 28.546875,14.3125888 27.8803711,15.2578125 C27.1728515,16.2653587 26.6088867,17.1274858 26.2089844,17.8234198 L26.1782226,17.8338068 C25.809082,17.7818714 25.378418,17.5429688 24.8862305,17.1170987 C24.5888672,16.7847124 24.4453125,16.6081321 24.4453125,16.5769709 L24.8695896,15.2922642 C24.6488329,15.6025647 24.3621352,15.9433658 23.9941406,16.2965199 C23.3994141,16.8678089 22.8354492,17.2105824 22.4047851,17.4079368 C22.1176758,17.5429688 21.7485351,17.7091619 21.2666016,17.8441939 C20.9487305,17.9272905 20.6411133,17.9688388 20.3232422,18 C19.7695312,17.9272905 19.2158203,17.7299361 18.703125,17.3352273 C18.2006836,16.9509055 17.9238281,16.597745 17.7905274,16.3276811 C17.5854492,15.9433594 17.4829101,15.4032315 17.4829101,14.7072976 C17.4829101,12.8064631 18.046875,11.0614347 19.1542969,9.44105114 C19.3798828,9.11905184 19.7387695,8.64124645 20.3129883,8.11150568 C20.8564453,7.61292614 21.4716797,7.39479758 22.097168,7.39479758 L22.1176758,7.39479758 C22.5996094,7.45712002 23.1943359,7.81028054 23.9428711,8.43350498 C24.5375976,8.93208453 24.8452149,9.49298651 24.8452149,10.1473721 C24.8452149,10.5940163 24.7016601,11.0614347 24.4145508,11.5704013 C23.8198242,12.235174 23.3789062,12.6402699 23.1225586,12.8272372 C22.6918945,13.1492365 22.3022461,13.4193004 21.9228516,13.6062677 C21.543457,13.8036221 21.0820312,14.0425249 20.4975586,14.1879439 L19.5336914,14.4268466 C19.4414062,14.8319425 19.4003906,15.1747159 19.4003906,15.4551669 C19.4003906,16.0472301 19.6054687,16.3380682 20.0053711,16.3380682 C20.34375,16.3380682 20.9897461,16.1303267 21.9125976,15.6525213 C22.5483399,15.330522 23.2148437,14.8527166 23.9428711,14.2502663 C24.6072112,13.7019221 25.264991,13.2133871 25.6538445,12.917548 L27.2856446,7.97647372 C27.4291993,7.97647372 27.8085936,8.03879615 28.3930664,8.25692471 C29.1313475,8.52698864 29.4799804,8.97363281 29.4799804,9.51376066 C28.2700196,12.380593 27.665039,13.8243963 27.665039,13.8347834 C28.977539,11.954723 30.4438475,10.0227273 32.063965,8.03879615 C32.381836,7.65447442 32.5561525,7.46750711 32.5664064,7.46750711 C32.7817382,7.47789417 33.1201172,7.58176492 33.6020507,7.81028054 C33.7866211,7.89337713 33.9711914,8.03879615 34.1455078,8.22576349 C34.2890625,8.38156961 34.3916015,8.61008523 34.453125,8.91131037 C32.6279297,12.3286577 31.7153321,14.6657493 31.7153321,15.9225852 C31.7153321,16.2030362 31.7768554,16.3380682 31.9101564,16.3380682 C32.1254882,16.3380682 32.6791993,15.9849077 33.4892578,15.2162642 C34.3198243,14.4372337 34.8120118,13.8243963 35.0581054,13.4920099 L35.5527903,12.8112577 C36.1371597,10.9415456 36.7513564,9.17068249 37.3857422,7.49866833 C37.8471679,6.28338068 38.4008789,4.81880326 39.0776368,3.11532316 L39.1083985,3.10493607 C39.4467775,3.20880682 39.7441407,3.32306463 39.9902343,3.47887075 C40.4926757,3.79048295 40.7285157,4.1644176 40.7285157,4.56951349 L38.0932618,11.0718217 C38.4726564,10.5836293 39.0161132,9.96040484 39.7646485,9.23330967 C40.26709,8.75550425 40.6157225,8.49582742 40.790039,8.42311789 L40.8002929,8.42311789 C41.2822265,8.42311789 41.7539064,8.74511719 42.1538086,9.40988992 C42.42041,9.86692115 42.5229493,10.3031783 42.5229493,10.7082742 L42.5229493,10.832919 C42.5229493,11.3003374 42.3383789,11.7469815 41.9897461,12.1936257 C41.57959,12.7337536 41.118164,13.2531073 40.5336914,13.637429 C39.9594725,14.0217507 39.4262696,14.2398793 38.9750975,14.3333629 L38.9853515,14.3852983 C38.9853515,14.8734908 39.0673828,15.4343927 39.2622071,16.0680043 C39.3237304,16.2653587 39.4467775,16.4731001 39.6210936,16.6808416 C39.938965,16.587358 40.4414064,16.2653587 41.0874025,15.6525213 C41.8154297,14.9669744 42.2871093,14.3749112 42.6049804,13.9802024 L42.6091282,13.9750504 C42.7552809,13.0546546 43.1134068,11.9968904 43.6918946,10.8017578 C43.9379882,10.2927912 44.296875,9.76305044 44.7890625,9.22292258 C45.8759765,7.99724787 46.9423828,7.40518467 47.9575196,7.40518467 C48.8598632,7.40518467 49.5878907,7.90376422 50.1416015,8.89053622 C50.2749025,9.12943893 50.3876953,9.38911576 50.4799804,9.66956675 L50.4594725,9.66956675 C50.0595703,9.5760831 49.7006836,9.52414773 49.3828125,9.52414773 L49.3417968,9.52414773 C47.8549804,9.52414773 46.5732422,10.3966619 45.5273436,12.1520774 C45.2709961,12.5779474 45.055664,13.0973011 44.850586,13.7101385 C44.5839843,14.5307173 44.4506836,15.2370383 44.4506836,15.8187145 C44.4506836,16.2653587 44.5532225,16.4834872 44.7583007,16.4834872 C45.1274414,16.4834872 45.609375,16.1199396 46.1528321,15.3512962 C46.696289,14.5722656 47.1166993,13.7724609 47.4550782,12.9830433 C47.5883789,12.5571733 47.6601564,12.2871094 47.6601564,12.1624645 C47.5268554,12.0689808 47.4448243,11.9235618 47.3935547,11.7054332 C47.3833007,11.6534979 47.3833007,11.6015625 47.3833007,11.5704013 C47.3833007,11.3522727 47.4653321,11.1237571 47.6293946,10.8848544 C48.3881836,10.3343395 48.9624025,10.0538885 49.3417968,10.0538885 C49.7416993,10.0538885 50.0185547,10.3862749 50.1826172,11.0614347 C50.3569336,11.4769176 50.7055664,11.6846591 51.2080078,11.6846591 C51.5463868,11.6846591 52.069336,11.5496271 52.7666015,11.2899503 L52.7768554,11.2899503 L52.7768554,11.3003374 C52.5615235,11.674272 52.3051757,12.0378196 51.9667968,12.370206 C51.4643554,12.8687855 50.8901368,13.1076882 50.2646485,13.1076882 C49.9160157,13.1076882 49.6186525,13.0245916 49.3725586,12.8583984 C49.2495118,12.7856889 49.1059571,12.6818182 48.9418946,12.5467862 L48.9418946,12.5571733 C49.0854493,12.8791726 49.2700196,13.1492365 49.4853515,13.3673651 C49.5673828,13.4193004 49.6083985,13.4504617 49.6083985,13.4712358 C49.3520507,14.1567827 49.0034179,14.8527166 48.5419922,15.5278764 C47.4243164,17.1898082 46.265625,18 45.1069336,18 C44.8916015,18 44.6455078,17.9272905 44.4096679,17.7610973 C44.1225586,17.6572266 43.6713868,17.3248402 43.0458985,16.7743253 C42.9433593,16.7016158 42.8715821,16.5561967 42.7895507,16.3380682 C42.6875941,16.0734115 42.613358,15.7886974 42.5717643,15.4789401 L42.5717643,15.4789401 L42.5717643,15.4789401 Z M9.09521485,0.134232955 C8.8696289,0.134232955 8.63378907,0.165394176 8.3774414,0.248490767 C7.89550782,0.414683948 7.5571289,0.695134942 7.36230468,1.05868253 C6.4086914,1.25603693 5.47558593,1.3495206 4.56298828,1.3495206 L4.4296875,1.3495206 C2.9633789,1.3495206 1.48681641,1.1106179 0.0102539063,0.622425425 C0.0102539063,0.6328125 0.0102539063,0.6328125 0,0.6328125 L0.297363282,1.23526279 C0.810058593,2.27397017 1.35351563,3.02183948 2.03027344,3.46848365 C2.57373047,3.59312855 3.17871093,3.65545099 3.85546875,3.65545099 L4.07080078,3.65545099 C4.81933593,3.65545099 5.61914064,3.56196734 6.47021485,3.36461294 L6.48046875,3.36461294 C5.5678711,5.18235085 4.70654297,7.05202415 3.89648436,8.95285865 C2.9428711,8.859375 2.1328125,8.77627841 1.4765625,8.68279475 C0.943359375,9.12943893 0.676757814,9.58647016 0.676757814,10.0435014 C0.676757814,10.3031783 0.769042968,10.5732422 0.943359375,10.8536932 C1.73291016,10.9887251 2.43017578,11.0510476 3.04541015,11.0510476 L3.05566407,11.0510476 L2.60449219,12.3182706 C2.03027344,13.9386541 1.68164062,15.1227805 1.68164062,15.9225852 C1.68164062,16.2653587 1.73291016,16.5769709 1.84570312,16.8678089 C2.14306641,17.6260653 2.80957032,18 3.86572265,18 L3.88623047,17.9688388 L3.88623047,17.9480646 C3.88623047,17.2729048 3.96826172,16.4938743 4.17333985,15.610973 C4.46044922,14.3956854 4.921875,12.8480114 5.52685547,10.9887251 C5.61914064,10.967951 5.97802735,10.9264027 6.59326172,10.8640802 C6.78808593,10.8640802 7.0546875,10.6978871 7.36230468,10.3239524 C7.69042968,9.91885653 7.94677735,9.46182529 8.14160157,8.97363281 C8.13134765,8.97363281 8.12109375,8.96324575 8.12109375,8.95285865 C7.64941407,9.03595525 7.00341797,9.07750355 6.19335936,9.07750355 L6.19335936,9.02556818 C7.03417968,6.81312145 7.97753907,4.67338424 9.0336914,2.61674361 C9.86425782,2.37784091 10.284668,1.93119673 10.2744141,1.27681108 C10.2744141,1.12100497 10.2539062,0.985973013 10.2333984,0.871715198 C10.0795899,0.383522727 9.76171875,0.134232955 9.26953125,0.134232955 L9.09521485,0.134232955 L9.09521485,0.134232955 Z M13.7197266,0.217329545 C13.2788086,1.44300426 12.8276367,2.55442117 12.355957,3.56196734 C11.7612305,4.86035157 10.8999024,6.53267045 9.6899414,8.50621448 C8.6953125,10.1369851 7.91601564,11.3626598 7.44433593,12.2559482 C7.44433593,12.515625 7.50585936,12.8895597 7.68017578,13.3465909 C7.89550782,13.9386541 8.25439453,14.3229758 8.6953125,14.5203302 C8.8491211,14.6553622 9.39257814,14.7176847 10.3256836,14.7176847 L10.4692383,14.7176847 C10.8896484,14.7176847 11.371582,14.6969105 11.9150391,14.6449751 L11.9355469,14.6449751 C11.6484375,15.4032315 11.5048828,16.0056818 11.5048828,16.452326 C11.5048828,16.9197443 11.6586914,17.2832919 11.9560547,17.5221946 C12.5405274,17.8441939 13.012207,18 13.3813476,18 C13.5761719,18 13.7299805,17.9480646 13.8222656,17.854581 C13.9145508,17.854581 13.9555664,17.6052912 14.0478516,17.0963246 C14.2324219,16.0576172 14.4990234,15.1435547 14.7758789,14.34375 L16.1293945,14.1360085 C16.2626953,14.1360085 16.40625,14.0736861 16.5805664,13.9386541 C16.8574219,13.6478161 17.0522461,13.3881392 17.1650391,13.1492365 C17.3496094,12.7753018 17.5239258,12.235174 17.6777344,11.5392401 C17.6674805,11.5392401 17.6674805,11.528853 17.6674805,11.5184659 C17.2265625,11.7158203 17.0112305,11.8196911 17.0009766,11.8196911 C16.1601562,12.089755 15.6679687,12.2247869 15.534668,12.2247869 L15.5244141,12.2247869 C16.0473633,10.8952415 16.6113281,9.5760831 17.2368164,8.25692471 C17.2368164,7.38441052 16.5908203,6.94815341 15.309082,6.94815341 L15.1962891,6.94815341 C14.5092774,8.32963424 13.7197266,10.1993075 12.8378906,12.5571733 C12.8378906,12.5883345 11.8637695,12.661044 9.90527343,12.7753018 L9.90527343,12.7649148 C10.1821289,12.380593 10.5512695,11.8612393 10.9819336,11.1756925 C12.4892578,8.77627841 13.8120117,6.32492896 14.980957,3.86319248 C15.2373047,3.43732244 15.3603516,2.96990411 15.3603516,2.48171165 L15.3603516,2.40900213 C15.3603516,1.47416548 14.8271484,0.73668324 13.7504883,0.206942471 L13.7197266,0.217329545 L13.7197266,0.217329545 Z M20.0258789,13.0142045 C20.0258789,12.941495 20.1899414,12.5467862 20.5795899,11.8508523 C21.3076172,10.5628551 22.1381836,9.7734375 23.0097656,9.44105114 L23.0097656,9.51376066 C23.0097656,9.66956675 22.9277344,9.90846946 22.7841797,10.2200817 C22.527832,10.7705966 22.1381836,11.3626598 21.5639649,11.954723 C21.112793,12.4117543 20.5898437,12.7545277 20.0258789,13.0142045 L20.0258789,13.0142045 L20.0258789,13.0142045 Z M37.5190429,13.5127841 C37.5908203,13.356978 37.6933593,13.1492365 37.8881836,12.941495 C38.0317382,12.7233665 38.3496093,12.3286577 38.9033203,11.8196911 C39.5595703,11.2172408 40.1645507,10.7913707 40.6977539,10.4797585 L40.7080078,10.4797585 C40.6567382,10.6355646 40.5644532,10.8121449 40.45166,11.0094993 C39.805664,12.1728516 38.8315429,13.0038175 37.5292968,13.5127841 L37.5190429,13.5127841 L37.5190429,13.5127841 Z" id="74enko" fill="#222222" sketch:type="MSShapeGroup"></path>
        </g>
    </g>
</svg>